<?xml version="1.0" encoding="UTF-8"?>
<svg id="Expanded" xmlns="http://www.w3.org/2000/svg" viewBox="0 0 64 64">
  <path fill="#498773" d="M52.9,11.86c-.42.16-.79.4-1.1.69-4.95-4.82-11.43-7.47-18.39-7.47-7.92,0-15.24,3.45-20.27,9.51-1.09-1.17-2.39-1.9-3.84-1.9-4.31,0-7.31,6.32-7.31,12,0,3.63,1.18,6.05,3.51,7.21v23.21c0,2.1,1.7,3.8,3.8,3.8s3.8-1.7,3.8-3.8v-6.75c4.98,6.02,12.37,9.55,20.31,9.55,6.54,0,12.66-2.34,17.47-6.62v3.66c0,2.02,1.5,3.75,3.41,3.94.13.01.25.02.38.02.94,0,1.86-.35,2.56-.98.79-.72,1.25-1.75,1.25-2.82v-16.91s.03-.02.05-.03c.02,0,.03-.02.05-.03,2.26-1.17,3.41-3.57,3.41-7.15,0-3.85-2.6-14.72-5.61-18.23-.87-1.01-2.24-1.37-3.49-.9ZM46.4,42.92l-1.47-1.47c-.39-.39-1.02-.39-1.41,0s-.39,1.02,0,1.41l1.48,1.48c-2.84,2.56-6.51,4.19-10.57,4.42v-2.13c0-.55-.45-1-1-1s-1,.45-1,1v2.13c-4.05-.23-7.73-1.86-10.57-4.42l1.48-1.48c.39-.39.39-1.02,0-1.41s-1.02-.39-1.41,0l-1.47,1.47c-2.51-2.85-4.09-6.52-4.29-10.56h2c.55,0,1-.45,1-1s-.45-1-1-1h-1.98c.26-4,1.88-7.62,4.41-10.43l1.33,1.33c.2.2.45.29.71.29s.51-.1.71-.29c.39-.39.39-1.02,0-1.41l-1.33-1.33c2.82-2.48,6.44-4.05,10.42-4.28v1.85c0,.55.45,1,1,1s1-.45,1-1v-1.85c3.98.23,7.6,1.8,10.42,4.28l-1.33,1.33c-.39.39-.39,1.02,0,1.41.2.2.45.29.71.29s.51-.1.71-.29l1.33-1.33c2.53,2.8,4.15,6.43,4.41,10.43h-1.98c-.55,0-1,.45-1,1s.45,1,1,1h2c-.2,4.04-1.78,7.71-4.29,10.56ZM33.42,7.09c6.65,0,12.82,2.62,17.45,7.37-.01.12-.03.25-.03.38l.03,8.45c-3.09-6.54-9.74-11.09-17.45-11.09s-13.71,4.1-16.98,10.12c-.31-2.2-1.03-4.35-2.06-6.06,4.66-5.83,11.56-9.16,19.04-9.16ZM11.11,55.11c0,.99-.81,1.8-1.8,1.8s-1.8-.81-1.8-1.8v-23.87c0-.42-.26-.8-.66-.94-1.22-.45-2.85-1.51-2.85-5.61,0-5.14,2.58-10,5.31-10s5.31,4.86,5.31,10c0,4.1-1.63,5.16-2.85,5.61-.4.14-.66.52-.66.94v23.87ZM33.42,55.91c-8.21,0-15.78-4.07-20.31-10.9v-13.11c.37-.18.7-.41,1.02-.66,0,.09-.01.17-.01.25,0,10.65,8.66,19.31,19.31,19.31,7.73,0,14.39-4.57,17.47-11.14v8.85c-4.62,4.77-10.81,7.39-17.47,7.39ZM57.77,36.32s0,0,0,0c-.21.11-.42.21-.62.28-.4.14-.66.52-.66.94v17.57c0,.51-.22.99-.59,1.33-.38.34-.87.51-1.4.46-.9-.09-1.61-.95-1.61-1.95v-23.71h0s-.05-16.42-.05-16.42c0-.75.58-1.02.76-1.09.08-.03.23-.08.43-.08.26,0,.57.08.85.41,2.49,2.9,5.12,13.1,5.12,16.93,0,3.43-1.14,4.73-2.23,5.33ZM41.36,35.26c-.16.38-.53.61-.92.61-.13,0-.27-.03-.39-.08-.51-.22-7.04-3.25-7.32-3.38-.21-.1-.39-.27-.49-.49l-4.55-9.85c-.23-.5-.01-1.1.49-1.33.5-.23,1.1-.01,1.33.49l4.4,9.52c2.08.97,6.55,3.04,6.93,3.21.51.22.74.81.52,1.31Z"/>
</svg>