<?xml version="1.0" encoding="UTF-8"?>
<svg id="Expanded" xmlns="http://www.w3.org/2000/svg" viewBox="0 0 64 64">
  <path fill="#498773" d="M58.41,27.15l-.77.64.73-.68s0,0,0,0c-2.08-2.2-4.15-4.65-5.18-7.58-.28-.8-.48-1.63-.7-2.52-.39-1.6-.79-3.25-1.7-4.75-1.72-2.83-5.12-4.16-7.66-4.77C27.66,3.74,10.39,16.1,4.55,29.54c-.11.26-.22.52-.33.79-1.89,4.72-2.58,8.78-2.04,12.07v3.88c0,5.37,3.92,10,9.12,10.76.75.11,1.48.16,2.21.16,3.04,0,5.94-.95,8.64-2.84,2.18-1.53,3.71-2.9,4.94-4,4.01-3.58,5.36-4.78,20.06-2.21,5.52.97,9.6.12,12.12-2.53,3.79-3.98,2.59-10.49,2.41-11.34,0-3.26-2.17-5.97-3.27-7.12ZM6.08,31.07c.1-.25.2-.49.31-.73,3.58-8.25,11.69-16.07,20.9-19.58.08.09.18.17.29.23,1.95.97,3.47,2.59,5.09,4.3.66.71,1.36,1.42,2.08,2.1-.18.55-.27,1.14-.27,1.74,0,3.16,2.57,5.73,5.73,5.73,1.65,0,3.13-.7,4.18-1.82,1.16,1.17,3.31,3.66,3.83,4.42.19.28.51.43.82.43.2,0,.39-.06.57-.18.45-.31.57-.94.26-1.39-.44-.65-2.92-3.63-4.37-4.99.28-.68.44-1.42.44-2.2,0-3.16-2.57-5.73-5.73-5.73-1.81,0-3.42.84-4.47,2.15-.55-.54-1.08-1.09-1.61-1.65-1.34-1.42-2.72-2.88-4.39-3.98,2.48-.72,5.02-1.13,7.55-1.13,1.8,0,3.6.2,5.38.63,2.18.53,5.06,1.63,6.42,3.87.75,1.23,1.1,2.66,1.46,4.18.22.89.44,1.82.76,2.71,1.16,3.28,3.38,5.92,5.61,8.29,0,0,.09.09.09.09,2.12,2.23,3.06,4.83,2.53,6.95-.61,2.43-3.1,3.93-5.29,4.34-.36.07-.71.11-1.07.14.15-.31.15-.67-.05-.98-2.09-3.18-4.64-6.02-7.58-8.44-.43-.35-1.06-.29-1.41.14-.35.43-.29,1.06.14,1.41,2.75,2.26,5.14,4.92,7.11,7.9-2.12-.1-4.24-.65-6.45-1.24-2.14-.57-4.34-1.14-6.6-1.29-.04-.06-.07-.13-.12-.19-2.08-2.13-4.69-3.58-7.21-4.98-.47-.26-.93-.52-1.39-.78-2.65-1.51-5.57-3.42-7.11-6.2-.27-.48-.87-.66-1.36-.39-.48.27-.66.88-.39,1.36,1.78,3.22,4.98,5.33,7.87,6.97.47.27.94.53,1.41.79,1.89,1.05,3.81,2.13,5.47,3.48-.22.03-.43.04-.65.08-4.19.71-8.04,2.5-11.77,4.23-2,.93-4.07,1.89-6.14,2.65-2.46.91-5.64,1.9-8.47,1.57-2.36-.28-3.93-1.71-4.32-3.93-.51-2.94.13-6.68,1.91-11.1ZM40.19,22.85c-2.05,0-3.73-1.67-3.73-3.73s1.67-3.73,3.73-3.73,3.73,1.67,3.73,3.73-1.67,3.73-3.73,3.73ZM57.83,44.24c-2.03,2.13-5.51,2.79-10.33,1.94-14.99-2.63-17.02-1.53-21.74,2.68-1.25,1.12-2.68,2.39-4.76,3.85-2.91,2.04-6.08,2.83-9.41,2.34-4.22-.62-7.41-4.39-7.41-8.78h0c1.05.98,2.45,1.62,4.07,1.81.46.05.92.08,1.39.08,2.83,0,5.72-.92,8.01-1.76,2.14-.79,4.25-1.77,6.29-2.71,3.61-1.67,7.34-3.4,11.26-4.07,3.09-.52,6.07.27,9.23,1.1,3.27.86,6.64,1.76,10.18,1.1,1.89-.35,3.93-1.37,5.34-2.99-.15,1.82-.68,3.88-2.12,5.4ZM9.65,28.65c-.4-.38-.42-1.01-.04-1.41.38-.4,1.01-.42,1.41-.04,2.87,2.7,6.09,5.01,9.57,6.86.49.26.67.87.41,1.35-.18.34-.53.53-.88.53-.16,0-.32-.04-.47-.12-3.64-1.94-7-4.35-10-7.17ZM23.27,17.96c.21-.51.8-.75,1.31-.53l5.85,2.46c.51.21.75.8.53,1.31-.16.38-.53.61-.92.61-.13,0-.26-.03-.39-.08l-5.85-2.46c-.51-.21-.75-.8-.53-1.31ZM8.63,40.62c-.42-.36-.47-.99-.11-1.41.36-.42.99-.47,1.41-.11l4.28,3.67c.42.36.47.99.11,1.41-.2.23-.48.35-.76.35-.23,0-.46-.08-.65-.24l-4.28-3.67Z"/>
</svg>