<?xml version="1.0" encoding="UTF-8"?>
<svg id="Expanded" xmlns="http://www.w3.org/2000/svg" viewBox="0 0 64 64">
  <path fill="#498773" d="M22.24,54.06c-1.67.47-2.91,2-2.91,3.82,0,2.2,1.79,3.99,3.99,3.99h23.33c2.2,0,3.99-1.79,3.99-3.99,0-1.82-1.24-3.35-2.91-3.82,3.58-2.19,5.98-6.12,5.98-10.61v-7.82c0-2.23-1.81-4.04-4.04-4.04h-29.34c-2.23,0-4.04,1.81-4.04,4.04v7.82c0,4.49,2.4,8.42,5.98,10.61ZM46.64,55.89c1.1,0,1.99.89,1.99,1.99s-.89,1.99-1.99,1.99h-23.33c-1.1,0-1.99-.89-1.99-1.99s.89-1.99,1.99-1.99h23.33ZM18.27,35.62c0-1.13.92-2.04,2.04-2.04h29.34c1.13,0,2.04.92,2.04,2.04v7.82c0,5.76-4.69,10.45-10.45,10.45h-12.53c-5.76,0-10.45-4.69-10.45-10.45v-7.82ZM4.48,35.11v22.98c0,2.08,1.69,3.77,3.77,3.77s3.77-1.69,3.77-3.77v-22.98c2.31-1.14,3.47-3.54,3.47-7.14,0-5.63-2.98-11.9-7.25-11.9S1,22.34,1,27.97c0,3.6,1.17,6,3.48,7.14ZM8.25,18.07c2.7,0,5.25,4.81,5.25,9.9,0,4.05-1.61,5.1-2.82,5.54-.4.14-.66.52-.66.94v23.64c0,.98-.8,1.77-1.77,1.77s-1.77-.8-1.77-1.77v-23.64c0-.42-.26-.8-.66-.94-1.21-.44-2.82-1.49-2.82-5.54,0-5.09,2.55-9.9,5.25-9.9ZM40.61,13.97h2.26c.18,1.32.7,2.53,1.47,3.55l-1.6,1.6c-.39.39-.39,1.02,0,1.41.2.2.45.29.71.29s.51-.1.71-.29l1.6-1.6c1.01.77,2.22,1.29,3.55,1.47v2.27c0,.55.45,1,1,1s1-.45,1-1v-2.27c1.32-.18,2.53-.7,3.55-1.47l1.6,1.6c.2.2.45.29.71.29s.51-.1.71-.29c.39-.39.39-1.02,0-1.41l-1.6-1.6c.77-1.01,1.3-2.22,1.47-3.55h2.26c.55,0,1-.45,1-1s-.45-1-1-1h-2.26c-.18-1.32-.7-2.53-1.47-3.55l1.6-1.6c.39-.39.39-1.02,0-1.41s-1.02-.39-1.41,0l-1.6,1.6c-1.01-.77-2.22-1.3-3.55-1.47v-2.26c0-.55-.45-1-1-1s-1,.45-1,1v2.26c-1.32.18-2.53.7-3.55,1.47l-1.6-1.6c-.39-.39-1.02-.39-1.41,0s-.39,1.02,0,1.41l1.6,1.6c-.77,1.01-1.3,2.22-1.47,3.55h-2.26c-.55,0-1,.45-1,1s.45,1,1,1ZM50.3,7.46c3.04,0,5.51,2.47,5.51,5.51s-2.47,5.51-5.51,5.51-5.51-2.47-5.51-5.51,2.47-5.51,5.51-5.51ZM21.77,27.93c-1.05-1.14-1.38-3.03-.9-5.06.17-.7.4-1.37.63-2.01.26-.73.5-1.42.64-2.13.21-1.09.09-2.46-.65-3.06-.43-.35-.49-.98-.15-1.41.35-.43.98-.49,1.41-.15,1.48,1.2,1.67,3.37,1.35,5-.17.85-.45,1.65-.72,2.42-.22.62-.43,1.21-.57,1.81-.26,1.07-.28,2.48.42,3.24.37.41.35,1.04-.06,1.41-.19.18-.44.26-.68.26-.27,0-.54-.11-.74-.32ZM28.31,27.93c-1.05-1.14-1.38-3.03-.9-5.06.17-.7.4-1.37.63-2.01.26-.73.5-1.42.64-2.13.21-1.09.09-2.46-.65-3.06-.43-.35-.49-.98-.15-1.41.35-.43.98-.49,1.41-.15,1.48,1.2,1.67,3.37,1.35,5-.17.85-.45,1.65-.72,2.42-.22.62-.43,1.21-.57,1.81-.26,1.07-.28,2.48.42,3.24.37.41.35,1.04-.06,1.41-.19.18-.44.26-.68.26-.27,0-.54-.11-.74-.32ZM34.86,27.93c-1.05-1.14-1.38-3.03-.9-5.06.17-.7.4-1.37.63-2.01.26-.73.5-1.42.64-2.13.21-1.09.09-2.46-.65-3.06-.43-.35-.49-.98-.15-1.41s.98-.49,1.41-.15c1.48,1.2,1.66,3.37,1.35,5-.17.85-.45,1.65-.72,2.42-.22.62-.43,1.21-.57,1.81-.26,1.07-.28,2.48.42,3.24.37.41.35,1.04-.06,1.41-.19.18-.44.26-.68.26-.27,0-.54-.11-.74-.32Z"/>
</svg>