<?xml version="1.0" encoding="UTF-8"?>
<svg id="Layer_1" xmlns="http://www.w3.org/2000/svg" version="1.1" viewBox="0 0 64 64">
  <!-- Generator: Adobe Illustrator 29.4.0, SVG Export Plug-In . SVG Version: 2.1.0 Build 152)  -->
  <defs>
    <style>
      .st0 {
        fill: none;
        stroke: #498773;
        stroke-linecap: round;
        stroke-linejoin: round;
        stroke-width: 2px;
      }
    </style>
  </defs>
  <g>
    <line class="st0" x1="42.93" y1="33.07" x2="42.93" y2="25.86"/>
    <path class="st0" d="M42.93,37.57v20.16c0,2.64-2.14,4.77-4.78,4.77H13.29c-2.64,0-4.77-2.13-4.77-4.77V6.27c0-2.64,2.13-4.77,4.77-4.77h24.86c2.64,0,4.78,2.13,4.78,4.77v15.09"/>
    <line class="st0" x1="23.34" y1="57.38" x2="28.1" y2="57.38"/>
    <line class="st0" x1="38.9" y1="33.07" x2="38.9" y2="25.86"/>
    <path class="st0" d="M38.9,37.57v13.19c0,1.24-1,2.24-2.23,2.24H14.78c-1.23,0-2.23-1-2.23-2.24V8.17c0-1.24,1-2.24,2.23-2.24h21.89c1.23,0,2.23,1,2.23,2.24v13.19"/>
  </g>
  <polygon class="st0" points="26.42 23.61 35.11 30.1 34.35 25.86 51.54 25.86 51.54 21.36 34.35 21.36 35.11 17.12 26.42 23.61"/>
  <polygon class="st0" points="55.48 35.32 46.79 28.83 47.55 33.07 30.37 33.07 30.37 37.57 47.55 37.57 46.79 41.81 55.48 35.32"/>
</svg>