<svg xmlns="http://www.w3.org/2000/svg" viewBox="0 0 32 32"><g id="scanner"><path fill="#498773" d="M23.82,27a2.56,2.56,0,0,1-1-.59,3,3,0,0,1,0-2.38h.48A1.77,1.77,0,0,0,25,22.23v-2.5A5,5,0,0,0,24.68,18l-2.32-6.18A5,5,0,0,0,21,2H5.9a1.64,1.64,0,0,0-1.34.7,1.61,1.61,0,0,0-.18,1.49L6.91,11A1.63,1.63,0,0,0,8.43,12h5.7l-.67,1H13a1,1,0,0,0,0,2h1a1,1,0,0,0,.83-.45l.92-1.37,2.06,5.49A3,3,0,0,1,18,19.73v2.5A1.77,1.77,0,0,0,19.77,24h.91a4.15,4.15,0,0,0,.54,3.62,4.05,4.05,0,0,0,1.88,1.21c.55.21.87.34,1,.62A1,1,0,0,0,25,30a.91.91,0,0,0,.45-.11,1,1,0,0,0,.44-1.34A3.35,3.35,0,0,0,23.82,27ZM24,7a3,3,0,0,1-3,3H12.69L10.44,4H21A3,3,0,0,1,24,7ZM6.44,4H8.31l2.25,6H8.69ZM19.68,18l-2.24-6h2.87l2.5,6.67A3,3,0,0,1,23,19.73V22H20V19.73A5,5,0,0,0,19.68,18Z"/></g></svg>