<svg width="204" height="204" viewBox="0 0 204 204" fill="none" xmlns="http://www.w3.org/2000/svg">
<rect width="204" height="204" fill="white"/>
<path d="M163.817 56.4111H157.228C157.246 56.7617 157.246 57.1042 157.246 57.4548C157.237 82.7156 135.404 103.691 107.81 106.048V186.995H157.54C163.438 186.996 169.114 184.997 173.413 181.406C177.711 177.815 180.309 172.902 180.677 167.667L186.954 78.3037C187.788 66.4405 177.19 56.4111 163.817 56.4111ZM46.7538 57.4548C46.7538 57.1042 46.7538 56.7617 46.772 56.4111H40.1828C26.8132 56.4111 16.2121 66.4432 17.046 78.309L23.323 167.672C23.691 172.907 26.2888 177.82 30.5874 181.411C34.8861 185.002 40.5621 187.001 46.4597 187H96.19V106.051C68.5958 103.691 46.7629 82.7156 46.7538 57.4548Z" fill="#495F48"/>
<path d="M134.361 55.9303C134.361 59.2824 133.764 62.5078 132.654 65.5282L132.405 65.4635C132.405 65.4635 132.569 65.0536 132.83 64.2661C133.091 63.4867 133.439 62.3271 133.73 60.8088C134.072 58.9767 134.229 57.1212 134.2 55.2642C134.157 52.8392 133.793 50.427 133.118 48.0773C132.952 47.5306 132.775 46.9867 132.587 46.4457L132.663 46.3486C133.793 49.4431 134.366 52.6768 134.361 55.9303Z" fill="#495F48"/>
<path d="M130.498 87.2913C134.155 87.2913 137.12 84.6543 137.12 81.4015C137.12 78.1487 134.155 75.5117 130.498 75.5117C126.84 75.5117 123.875 78.1487 123.875 81.4015C123.875 84.6543 126.84 87.2913 130.498 87.2913Z" fill="#495F48"/>
<path d="M112.204 96.7793C115.294 96.7793 117.798 94.5516 117.798 91.8037C117.798 89.0558 115.294 86.8281 112.204 86.8281C109.114 86.8281 106.609 89.0558 106.609 91.8037C106.609 94.5516 109.114 96.7793 112.204 96.7793Z" fill="#495F48"/>
<path d="M90.5074 96.9547C93.2405 96.9547 95.4561 94.9842 95.4561 92.5535C95.4561 90.1228 93.2405 88.1523 90.5074 88.1523C87.7742 88.1523 85.5586 90.1228 85.5586 92.5535C85.5586 94.9842 87.7742 96.9547 90.5074 96.9547Z" fill="#495F48"/>
<path d="M72.5105 87.176C74.202 87.176 75.5732 85.9566 75.5732 84.4523C75.5732 82.948 74.202 81.7285 72.5105 81.7285C70.8191 81.7285 69.4479 82.948 69.4479 84.4523C69.4479 85.9566 70.8191 87.176 72.5105 87.176Z" fill="#495F48"/>
<path d="M147.543 57.2873C147.543 61.3379 146.873 65.2509 145.617 68.9374L132.654 65.5287C133.764 62.5056 134.361 59.2802 134.361 55.9308C134.361 52.5868 133.767 49.3641 132.66 46.3491C130.487 40.4323 126.361 35.2346 120.819 31.4332L120.34 31.1042C117.847 29.4273 115.12 28.044 112.228 26.9889C110.312 26.2996 108.331 25.7617 106.309 25.3816L105.539 25.2333L104.766 25.12C104.253 25.0418 103.719 24.9582 103.246 24.9124L102.516 24.8369C102.273 24.8099 102.046 24.7802 101.721 24.7694L100.833 24.7209L100.39 24.6966L100.162 24.6858L100.056 24.6778L99.9987 24.6805H99.9532C95.7576 24.5564 91.5688 25.068 87.5661 26.1933C83.6129 27.3297 79.8993 29.0421 76.5769 31.2606C73.439 33.3661 70.6934 35.8979 68.4412 38.7631C67.8832 39.4427 67.4011 40.1438 66.9159 40.8396C66.6794 41.1902 66.4702 41.5408 66.2458 41.8913C66.0183 42.2419 65.8152 42.5979 65.6241 42.9485C64.8054 44.3562 64.1717 45.7909 63.6258 47.177C63.3711 47.8782 63.1043 48.5632 62.9132 49.2482C62.8192 49.588 62.701 49.9278 62.6191 50.2622C62.5327 50.5973 62.4519 50.9335 62.3765 51.2708L62.2582 51.7562C62.2254 51.9214 62.1941 52.0868 62.1642 52.2524L61.9884 53.2125C61.8822 53.8435 61.8246 54.4314 61.7458 55.0166C61.6882 55.6315 61.6548 56.276 61.6124 56.8693L61.6093 56.9853C61.6093 56.9853 61.6093 57.0095 61.6002 57.0095V57.0365L61.5972 57.2469C61.5881 57.3871 61.5881 57.5246 61.5851 57.6568C61.5851 57.9345 61.576 58.1988 61.5851 58.4631C61.5955 60.7833 61.878 63.0962 62.4281 65.3642C62.5342 65.8253 62.6191 66.1436 62.6919 66.4051L62.801 66.7827L58.7225 67.821L58.5891 67.4515C58.2036 66.3812 57.8727 65.296 57.5975 64.1992C57.152 61.9175 56.9288 59.6058 56.9304 57.29C56.9304 35.0361 77.2168 17 102.24 17C113.514 17 123.827 20.6622 131.75 26.7219C135.246 29.3891 138.263 32.5146 140.699 35.9908C145.186 42.3764 147.558 49.7575 147.543 57.2873Z" fill="#495F48"/>
<path d="M123.09 45.9255C122.244 44.7875 120.907 44.4558 119.542 45.0464C118.05 45.6963 116.598 46.4541 115.176 47.1957L114.827 47.3764C112.534 48.5765 110.245 49.7846 107.959 50.9955L104.068 53.0477C102.796 52.5779 101.412 52.3955 100.041 52.5169C98.6704 52.6384 97.3545 53.0597 96.2113 53.7435C95.2806 54.2716 94.4786 54.9606 93.8531 55.7696C93.2275 56.5786 92.7911 57.4912 92.5697 58.4531C92.3484 59.415 92.3465 60.4066 92.5644 61.3692C92.7822 62.3317 93.2153 63.2455 93.8379 64.0563C94.4604 64.8672 95.2599 65.5585 96.1886 66.0893C97.1174 66.6201 98.1566 66.9795 99.2446 67.1463C100.333 67.313 101.447 67.2836 102.522 67.0599C103.597 66.8362 104.611 66.4227 105.502 65.844C106.643 65.1461 107.569 64.2051 108.196 63.107C108.823 62.0089 109.13 60.7887 109.09 59.5578C111.294 57.8642 114.687 55.313 117.426 53.2527L117.662 53.0747C120.224 51.1465 122.253 49.6228 122.681 49.2749C123.833 48.3418 123.981 47.1202 123.09 45.9255Z" fill="#495F48"/>
</svg>
